<svg xmlns="http://www.w3.org/2000/svg" viewBox="0 0 98.41 219.16"><defs><style>.cls-1{fill:#002d5d;}.cls-2{fill:#10cfc9;}.cls-3{fill:#e54360;}</style></defs><g id="Livello_2" data-name="Livello 2"><g id="Livello_1-2" data-name="Livello 1"><path class="cls-1" d="M7.15,190.1v3A2.71,2.71,0,0,1,4.31,196a2.71,2.71,0,0,1-2.84-2.93v-3a2.71,2.71,0,0,1,2.84-2.94,2.71,2.71,0,0,1,2.84,2.94m-2.84-2.4A2.18,2.18,0,0,0,2,190.13v2.92a2.17,2.17,0,0,0,2.29,2.42,2.17,2.17,0,0,0,2.29-2.42v-2.92a2.18,2.18,0,0,0-2.29-2.43"/><path class="cls-1" d="M7,213.14V219H6.49v-5.78c0-1.51-.77-2.37-2.14-2.37A2,2,0,0,0,2.22,213l0,6H1.65l0-11.52h.55v4.08a2.33,2.33,0,0,1,2.21-1.25A2.51,2.51,0,0,1,7,213.14"/><path class="cls-2" d="M97.84,0H68.7V34.35A34.37,34.37,0,0,1,48.92,65.47,34.37,34.37,0,0,0,97.84,34.35V0"/><path class="cls-1" d="M68.7,0H29.14V34.35A34.37,34.37,0,0,0,48.92,65.47,34.37,34.37,0,0,0,68.7,34.35V0"/><path class="cls-3" d="M29.14,34.35V0H0V34.35A34.29,34.29,0,0,0,48.88,65.44,34.33,34.33,0,0,1,29.14,34.35"/><path class="cls-1" d="M6.1,120.31a.82.82,0,0,1-.84-.57L.5,105.45a.72.72,0,0,1,0-.24.58.58,0,0,1,.19-.45.67.67,0,0,1,.49-.18H3a.9.9,0,0,1,.5.16.89.89,0,0,1,.32.44l3.36,11,3-11a.81.81,0,0,1,.31-.44.9.9,0,0,1,.5-.16h1.9a.93.93,0,0,1,.51.16.87.87,0,0,1,.31.44l3.26,11,3.12-11a.83.83,0,0,1,.32-.44.9.9,0,0,1,.5-.16h1.76a.67.67,0,0,1,.49.18.58.58,0,0,1,.19.45.72.72,0,0,1,0,.24l-4.48,14.29a.87.87,0,0,1-.31.44,1,1,0,0,1-.53.16l-2.15,0a.94.94,0,0,1-.53-.15.73.73,0,0,1-.31-.42L12,109.44l-2.88,10.3a.83.83,0,0,1-.32.44,1,1,0,0,1-.53.16Z"/><path class="cls-1" d="M30.26,119.28a6.51,6.51,0,0,1-3.21-5.63v-2.93a6.37,6.37,0,0,1,.87-3.26,6.46,6.46,0,0,1,2.34-2.36,6.51,6.51,0,0,1,6.5,0,6.56,6.56,0,0,1,2.35,2.36,6.36,6.36,0,0,1,.86,3.26v1.82a1.15,1.15,0,0,1-.33.83,1.13,1.13,0,0,1-.83.34h-8.5v.14a3.19,3.19,0,0,0,3.2,3.2h4.32a.6.6,0,0,1,.41.16.56.56,0,0,1,.16.41v2a.52.52,0,0,1-.16.4.57.57,0,0,1-.41.17H33.51a6.31,6.31,0,0,1-3.25-.87m6.45-8.5v-.25a3.2,3.2,0,1,0-6.4,0v.25Z"/><path class="cls-1" d="M54,119.21a4.32,4.32,0,0,1-1.42-3.36,4.08,4.08,0,0,1,1.3-3.1,6.68,6.68,0,0,1,3.67-1.62c.4,0,.78-.09,1.14-.16,1.26-.15,2-.26,2.31-.33a1.05,1.05,0,0,0,1-1.14,1.91,1.91,0,0,0-.83-1.62,3.37,3.37,0,0,0-2.07-.61,3.5,3.5,0,0,0-3.21,1.6.61.61,0,0,1-.52.36.56.56,0,0,1-.35-.11l-1.52-1a.52.52,0,0,1-.24-.47.72.72,0,0,1,0-.24,5.41,5.41,0,0,1,2.34-2.32,7.21,7.21,0,0,1,3.5-.83,6.86,6.86,0,0,1,3.15.68,4.93,4.93,0,0,1,2.11,1.93,5.47,5.47,0,0,1,.74,2.88v9.86a.52.52,0,0,1-.16.4.55.55,0,0,1-.41.17H62.68a.57.57,0,0,1-.4-.15.54.54,0,0,1-.17-.42v-1.06a5.91,5.91,0,0,1-4.45,2A5.32,5.32,0,0,1,54,119.21m6-2.16a4.41,4.41,0,0,0,1.54-1.43,3.29,3.29,0,0,0,.58-1.86v-.54l-2,.3c-1.11.13-1.82.23-2.15.3-1.49.27-2.23.91-2.23,1.93a1.62,1.62,0,0,0,.63,1.34,2.52,2.52,0,0,0,1.65.5,4,4,0,0,0,2-.54"/><path class="cls-1" d="M70.18,120a.56.56,0,0,1-.16-.4v-2a.58.58,0,0,1,.16-.41.56.56,0,0,1,.41-.16h2.07v-9.35H70.32a.55.55,0,0,1-.57-.57v-1.93a.56.56,0,0,1,.16-.41.6.6,0,0,1,.41-.16h4.21a1.12,1.12,0,0,1,.83.34,1.16,1.16,0,0,1,.34.83v1l1.47-1.17a6.16,6.16,0,0,1,1.41-.91,3.58,3.58,0,0,1,1.41-.26h.84a.54.54,0,0,1,.41.16.56.56,0,0,1,.16.41v2.09a.55.55,0,0,1-.57.57h-.7a2.93,2.93,0,0,0-1.23.25A9.26,9.26,0,0,0,77.33,109l-1.5,1.2V117h2.69a.55.55,0,0,1,.57.57v2a.52.52,0,0,1-.16.4.55.55,0,0,1-.41.17H70.59a.57.57,0,0,1-.41-.17"/><path class="cls-1" d="M88.26,119.28a6.56,6.56,0,0,1-2.35-2.36,6.4,6.4,0,0,1-.87-3.27v-2.93a6.37,6.37,0,0,1,.87-3.26,6.56,6.56,0,0,1,2.35-2.36,6.49,6.49,0,0,1,6.49,0A6.43,6.43,0,0,1,98,110.72v1.82a1.12,1.12,0,0,1-.34.83,1.09,1.09,0,0,1-.82.34H88.3v.14a3.21,3.21,0,0,0,3.21,3.2h4.32a.6.6,0,0,1,.41.16.56.56,0,0,1,.16.41v2a.52.52,0,0,1-.16.4.57.57,0,0,1-.41.17H91.51a6.31,6.31,0,0,1-3.25-.87m6.45-8.5v-.25a3.21,3.21,0,1,0-6.41,0v.25Z"/><path class="cls-1" d="M3.68,150.92a.54.54,0,0,1-.16-.41V138.56H1.37A.6.6,0,0,1,1,138.4.6.6,0,0,1,.8,138v-1.9a.58.58,0,0,1,.16-.41.56.56,0,0,1,.41-.16H3.52v-.87a4.62,4.62,0,0,1,1.32-3.43,4.68,4.68,0,0,1,3.43-1.3h2.56a.56.56,0,0,1,.4.16.57.57,0,0,1,.17.41v1.85a.57.57,0,0,1-.17.41.56.56,0,0,1-.4.16H8.25a1.4,1.4,0,0,0-1.08.42,1.6,1.6,0,0,0-.39,1.13v1.06h10a1.3,1.3,0,0,1,1,.39,1.32,1.32,0,0,1,.39,1V148h2.2a.54.54,0,0,1,.41.16.55.55,0,0,1,.17.41v1.95a.55.55,0,0,1-.17.41.54.54,0,0,1-.41.16h-4.1a1.3,1.3,0,0,1-1-.39,1.33,1.33,0,0,1-.4-1V138.56H6.78v11.95a.54.54,0,0,1-.16.41.56.56,0,0,1-.41.16H4.09a.54.54,0,0,1-.41-.16m11.38-17.36a.58.58,0,0,1-.16-.41V130a.6.6,0,0,1,.16-.41.56.56,0,0,1,.41-.16h2.07a.52.52,0,0,1,.4.16.57.57,0,0,1,.17.41v3.12a.55.55,0,0,1-.17.41.52.52,0,0,1-.4.16H15.47a.56.56,0,0,1-.41-.16"/><path class="cls-1" d="M30.18,150.91a4.69,4.69,0,0,1-1.75-1.57v1.17a.54.54,0,0,1-.16.41.56.56,0,0,1-.41.16H26.09a.52.52,0,0,1-.4-.16.55.55,0,0,1-.17-.41V130.84a.58.58,0,0,1,.57-.57h2.12a.55.55,0,0,1,.41.17.52.52,0,0,1,.16.4v6.06a4.72,4.72,0,0,1,3.64-1.74,5.66,5.66,0,0,1,3,.86,6.3,6.3,0,0,1,2.21,2.29,6.24,6.24,0,0,1,.81,3.1v3.78a6.08,6.08,0,0,1-.83,3.1,6.41,6.41,0,0,1-2.22,2.29,5.7,5.7,0,0,1-3,.86,5,5,0,0,1-2.24-.53m4.1-3.54a3.06,3.06,0,0,0,.94-2.26v-3.62a3.21,3.21,0,0,0-3.2-3.2,3.14,3.14,0,0,0-2.29.94,3.07,3.07,0,0,0-.95,2.26v3.62a3.07,3.07,0,0,0,.95,2.26,3.14,3.14,0,0,0,2.29.94,3.06,3.06,0,0,0,2.26-.94"/><path class="cls-1" d="M46.62,150.21a6.49,6.49,0,0,1-3.22-5.62v-2.93a6.34,6.34,0,0,1,.87-3.26A6.44,6.44,0,0,1,46.62,136a6.49,6.49,0,0,1,6.49,0,6.44,6.44,0,0,1,2.35,2.37,6.34,6.34,0,0,1,.87,3.26v1.82a1.13,1.13,0,0,1-.34.82,1.12,1.12,0,0,1-.83.34h-8.5v.14a3.18,3.18,0,0,0,3.2,3.2h4.32a.55.55,0,0,1,.41.17.54.54,0,0,1,.16.41v1.95a.55.55,0,0,1-.57.57H49.86a6.27,6.27,0,0,1-3.24-.87m6.45-8.5v-.24a3.21,3.21,0,0,0-3.21-3.21,3.19,3.19,0,0,0-3.2,3.21v.24Z"/><path class="cls-1" d="M60.87,150.92a.55.55,0,0,1-.17-.41v-2a.57.57,0,0,1,.17-.41.52.52,0,0,1,.4-.16h2.07v-9.34H61a.57.57,0,0,1-.41-.17.54.54,0,0,1-.16-.4v-1.93a.54.54,0,0,1,.16-.41.56.56,0,0,1,.41-.16h4.21a1.12,1.12,0,0,1,.83.34,1.09,1.09,0,0,1,.34.82v1l1.47-1.16a6.63,6.63,0,0,1,1.41-.92,3.59,3.59,0,0,1,1.41-.25h.84a.54.54,0,0,1,.41.16.55.55,0,0,1,.17.41V138a.57.57,0,0,1-.17.41.58.58,0,0,1-.41.16h-.7a2.85,2.85,0,0,0-1.22.24A10.13,10.13,0,0,0,68,139.89l-1.49,1.2v6.84h2.69a.54.54,0,0,1,.4.16.57.57,0,0,1,.17.41v2a.55.55,0,0,1-.17.41.54.54,0,0,1-.4.16H61.27a.52.52,0,0,1-.4-.16"/><path class="cls-1" d="M7.15,190.07v3A2.71,2.71,0,0,1,4.31,196a2.71,2.71,0,0,1-2.84-2.94v-3a2.71,2.71,0,0,1,2.84-2.94,2.71,2.71,0,0,1,2.84,2.94m-2.84-2.4A2.18,2.18,0,0,0,2,190.1V193a2.18,2.18,0,0,0,2.29,2.42A2.18,2.18,0,0,0,6.6,193V190.1a2.18,2.18,0,0,0-2.29-2.43"/><path class="cls-1" d="M15.88,187.29v8.52h-.52v-1.17A2.33,2.33,0,0,1,13.09,196a2.49,2.49,0,0,1-2.58-2.81v-5.89h.55v5.81c0,1.5.76,2.34,2.12,2.34a2.06,2.06,0,0,0,2.15-2.34v-5.81Z"/><path class="cls-1" d="M21.89,187.85V194a1.16,1.16,0,0,0,1.25,1.29h1.72v.53h-1.8a1.65,1.65,0,0,1-1.72-1.73v-6.23H19v-.54h2.35v-3h.55v3h3v.54Z"/><path class="cls-1" d="M33.14,189.81A1.93,1.93,0,0,0,31,187.67a1.76,1.76,0,0,0-2,1.67c0,1,.74,1.48,1.62,1.75l.86.26c1.34.42,2.29.92,2.29,2.3A2.5,2.5,0,0,1,31.07,196a2.6,2.6,0,0,1-2.75-2.55v-.32h.55v.23a2.05,2.05,0,0,0,2.2,2.09c1.24,0,2.19-.73,2.19-1.75s-.71-1.46-1.91-1.82l-.83-.26c-1-.32-2-.86-2-2.24A2.29,2.29,0,0,1,31,187.13a2.48,2.48,0,0,1,2.68,2.7V190h-.55Z"/><path class="cls-1" d="M42.83,190.07v3a2.84,2.84,0,1,1-5.68,0v-3a2.84,2.84,0,1,1,5.68,0M40,187.67a2.18,2.18,0,0,0-2.29,2.43V193a2.29,2.29,0,1,0,4.58,0V190.1A2.18,2.18,0,0,0,40,187.67"/><path class="cls-1" d="M51.56,187.29v8.52H51v-1.17A2.33,2.33,0,0,1,48.77,196a2.49,2.49,0,0,1-2.58-2.81v-5.89h.55v5.81c0,1.5.76,2.34,2.12,2.34A2.06,2.06,0,0,0,51,193.1v-5.81Z"/><path class="cls-1" d="M60.87,189.92v0h-.56v0a2,2,0,0,0-2.14-2.27A2.06,2.06,0,0,0,56.05,190v5.79H55.5v-8.52H56v1.19a2.29,2.29,0,0,1,2.25-1.35,2.5,2.5,0,0,1,2.6,2.79"/><path class="cls-1" d="M69,189.81a2,2,0,0,0-2.21-2.14,2.14,2.14,0,0,0-2.21,2.43V193a2.16,2.16,0,0,0,2.21,2.42,2,2,0,0,0,2.24-2.14v-.16h.55v.17A2.58,2.58,0,0,1,66.82,196a2.69,2.69,0,0,1-2.76-2.94v-3a2.67,2.67,0,0,1,2.76-2.94,2.55,2.55,0,0,1,2.76,2.65V190H69Z"/><path class="cls-1" d="M78.56,193.12v.19A2.6,2.6,0,0,1,75.72,196a2.73,2.73,0,0,1-2.85-2.94v-3a2.83,2.83,0,1,1,5.66,0v1.51H73.42V193a2.2,2.2,0,0,0,2.3,2.42A2.06,2.06,0,0,0,78,193.3v-.18Zm-5.14-3V191H78v-.94a2.28,2.28,0,1,0-4.56,0"/><rect class="cls-1" x="82.84" y="194.59" width="1.2" height="1.22"/><path class="cls-1" d="M7,213.11V219H6.49v-5.77c0-1.51-.77-2.37-2.14-2.37A2,2,0,0,0,2.22,213l0,6H1.65l0-11.52h.55v4.09a2.33,2.33,0,0,1,2.21-1.25A2.51,2.51,0,0,1,7,213.11"/><path class="cls-1" d="M15.88,210.46V219h-.52v-1.17a2.33,2.33,0,0,1-2.27,1.35,2.49,2.49,0,0,1-2.58-2.81v-5.89h.55v5.81c0,1.5.76,2.34,2.12,2.34a2.06,2.06,0,0,0,2.15-2.34v-5.81Z"/><path class="cls-1" d="M25.72,212.38V219h-.55v-6.52c0-1.09-.49-1.62-1.38-1.62s-1.34.6-1.34,1.62V219h-.56v-6.52c0-1.09-.47-1.62-1.34-1.62s-1.37.61-1.37,1.62V219h-.55v-8.53h.51v.83a1.59,1.59,0,0,1,1.55-1,1.56,1.56,0,0,1,1.58,1,1.64,1.64,0,0,1,1.62-1c1.15,0,1.83.75,1.83,2.08"/><path class="cls-1" d="M33.72,213.11V219H33.2v-1.07a2.61,2.61,0,0,1-2.39,1.25,2.54,2.54,0,1,1,0-5.06,2.65,2.65,0,0,1,2.3,1.09v-2.05A2.08,2.08,0,0,0,31,210.85a2,2,0,0,0-2.09,2.26v.18h-.55v-.21A2.52,2.52,0,0,1,31,210.32a2.61,2.61,0,0,1,2.76,2.79m-.55,3.52a2,2,0,0,0-2.27-2,2,2,0,1,0,0,4.07,2,2,0,0,0,2.27-2"/><path class="cls-1" d="M42.72,213.13V219h-.55v-5.79c0-1.49-.78-2.35-2.14-2.35a2.08,2.08,0,0,0-2.15,2.35V219h-.55v-8.52h.54v1.16a2.3,2.3,0,0,1,2.25-1.32,2.51,2.51,0,0,1,2.6,2.83"/><path class="cls-1" d="M54.33,209.15v1.33h3V211h-3v8h-.55v-8H51.44v-.54h2.34v-1.4a1.62,1.62,0,0,1,1.7-1.71h1.84v.53H55.56a1.13,1.13,0,0,0-1.23,1.25"/><path class="cls-1" d="M66.12,213.24v3a2.84,2.84,0,1,1-5.67,0v-3a2.84,2.84,0,1,1,5.67,0m-2.84-2.4A2.18,2.18,0,0,0,61,213.27v2.92a2.29,2.29,0,1,0,4.58,0v-2.92a2.18,2.18,0,0,0-2.29-2.43"/><path class="cls-1" d="M75.24,213.09v0h-.55v0a2,2,0,0,0-2.14-2.27,2.06,2.06,0,0,0-2.13,2.35V219h-.55v-8.52h.52v1.19a2.3,2.3,0,0,1,2.25-1.35,2.49,2.49,0,0,1,2.6,2.79"/><path class="cls-1" d="M83.4,213a2,2,0,0,0-2.21-2.14A2.14,2.14,0,0,0,79,213.27v2.92a2.16,2.16,0,0,0,2.21,2.42,2,2,0,0,0,2.24-2.14v-.16H84v.17a2.58,2.58,0,0,1-2.79,2.68,2.69,2.69,0,0,1-2.76-2.93v-3a2.67,2.67,0,0,1,2.76-2.94A2.55,2.55,0,0,1,84,213v.18H83.4Z"/><path class="cls-1" d="M92.93,216.29v.19a2.6,2.6,0,0,1-2.84,2.68,2.72,2.72,0,0,1-2.85-2.93v-3a2.83,2.83,0,1,1,5.66,0v1.51H87.79v1.44a2.2,2.2,0,0,0,2.3,2.42,2.06,2.06,0,0,0,2.29-2.14v-.18Zm-5.14-3v.94h4.56v-.94a2.28,2.28,0,1,0-4.56,0"/><rect class="cls-1" x="97.21" y="217.77" width="1.2" height="1.22"/></g></g></svg>