<svg xmlns="http://www.w3.org/2000/svg" viewBox="0 0 175.06 122.74"><defs><style>.cls-1{fill:#10cfc9;}</style></defs><g id="Livello_2" data-name="Livello 2"><g id="Livello_1-2" data-name="Livello 1"><polygon class="cls-1" points="174.76 10.15 175.06 10.45 175.06 6.98 174.76 6.68 168.42 0.3 168.21 0.09 168.12 0 164.68 0 164.98 0.3 174.76 10.15"/><polygon class="cls-1" points="174.76 20.88 175.06 21.18 175.06 17.71 174.76 17.41 157.76 0.3 157.55 0.09 157.46 0 154.01 0 154.31 0.3 174.76 20.88"/><polygon class="cls-1" points="174.76 31.6 175.06 31.9 175.06 28.43 174.76 28.13 147.09 0.3 146.88 0.09 146.79 0 143.34 0 143.65 0.3 174.76 31.6"/><polygon class="cls-1" points="174.76 42.33 175.06 42.63 175.06 39.16 174.76 38.86 136.43 0.3 136.22 0.09 136.13 0 132.68 0 132.98 0.3 174.76 42.33"/><polygon class="cls-1" points="174.76 49.59 125.76 0.3 125.55 0.09 125.46 0 123.04 0 122.8 0 122.02 0 122.32 0.3 122.5 0.49 122.55 0.54 122.8 0.8 123.11 1.1 123.11 1.1 174.76 53.06 175.06 53.36 175.06 49.89 174.76 49.59"/><path class="cls-1" d="M122.8,8.05l-.3-.3L121.25,6.5l1.55-1.56.31-.31V1.17l-.31.3-3.27,3.29h0l-3.61-3.63.82-.83.31-.3h-5.7l.3.3.82.83-3.61,3.63h0l-3.6-3.63.82-.83.3-.3h-5.7l.31.3.82.83L98.2,4.76,94.59,1.13,95.42.3l.29-.3H90l.31.3.82.83L87.53,4.76,83.92,1.13,84.75.3l.3-.3h-5.7l.3.3.82.83-3.6,3.63h0l-3.6-3.63L74.08.3l.3-.3H68.69l.3.3.82.83L66.2,4.76,62.59,1.13,63.42.3l.3-.3H58l.3.3.83.83L55.53,4.76,52.26,1.47l-.3-.3V4.63l.3.31L53.81,6.5,52.57,7.75l-.31.3L.3,60.32l-.21.21L0,60.62v.78c0,.49,0,1,0,1.44L.07,64l.31-.31L52,11.83h0l.3-.31.19-.18,0,0h0l3.05-3.07,3.62,3.63-3.61,3.63-3.28-3.3-.3-.3v3.47l.3.3,1.55,1.56-1.24,1.25-.31.31L1,70.37l-.17.17-.1.11,0,.15c.12.75.26,1.49.4,2.22l.11.56.26-.27L52,22.56l.3-.31L55.54,19l3.61,3.63-3.61,3.63-3.28-3.3-.3-.3v3.47l.3.3L53.81,28l-1.24,1.26h0l-.31.31L2.93,79.13l-.24.25.05.17c.18.59.38,1.18.59,1.76l.23.66.24-.25L52,33.28l.3-.3,3.28-3.3h0l3.61,3.63L55.53,37l-3.27-3.3-.3-.3v3.47l.3.3,1.55,1.56-1.24,1.25-.31.31L5.89,86.88,5.8,87l-.14.15.09.19c.28.59.56,1.17.86,1.75l.19.38L7,89.2,52,44l.3-.3.19-.19,0,0h0l3.05-3.08,3.62,3.64-3.62,3.62h0l-3.27-3.28-.3-.31v3.46l.3.31,1.55,1.56-1.24,1.25-.31.3L9.66,93.81l-.06.07-.17.17.27.42c.3.46.59.92.89,1.37l.21.3.22-.22L52,54.74l.3-.3,3.27-3.3h0l3.62,3.64L55.54,58.4l-3.28-3.29L52,54.8v3.47l.3.31,1.55,1.56-1.54,1.54L52,62,14.13,100.05l0,0-.2.19.18.22,1.06,1.22.37.42.23-.22L52.09,65.34l.29-.3.26-.25,0,0,2.88-2.89,3.61,3.63-3.61,3.63L52.45,66l-.33-.35.06.83c.09,1,.2,2,.32,2.94l0,.1.36.37.93.94-.68.68-.08.08-33.76,34h0l-.22.22.23.21c.44.43.9.85,1.36,1.25l.22.19.22-.22L53.42,74.73l.27-.27.13-.14.11-.11,1.61-1.61,3.61,3.63-3.61,3.63L55,79.28l-.52-.52L55,80.42l-29.87,30,0,0-.23.22.29.21q.75.56,1.53,1.08l.21.15.23-.23L55.87,83h0c.08.2.16.42.25.63l.18.45.6.62L59.15,87l-.65.64-.21.22-26.7,26.85-.23.23.35.2q.84.47,1.71.9l.19.1.24-.23L59.46,90.11l.21-.22,1.2-1.2,3.61,3.63-2.33,2.34-.22.23-23.1,23.23-.24.24.42.17c.63.25,1.26.49,1.9.72l.18.06.24-.24L63.56,96.71l0,0,.18-.17,2.43-2.45,3.61,3.62-3.09,3.11-.22.22L47,120.6l-.1.12-.23.27.53.12c.69.17,1.38.33,2.08.47l.16,0,.26-.27,18.38-18.48h0l.22-.22,3.2-3.22h0l3.6,3.63L72,106.26l-.22.22L56.07,122.23l-.28.29.64,0c.82.07,1.63.13,2.45.16H59l.29-.3L73.57,108.1l.08-.08.15-.15.2-.2,2.86-2.89h0l3.6,3.63L77.88,111h0v0L66.71,122.26l-.35.35.83-.08c1-.08,2-.2,3-.34h.1l.38-.38,9.28-9.34.21-.21h0l2.09-2.1h0l3.61,3.63L84.64,115h0l-.21.22L80,119.65l-.51.51,1.2-.39c1.38-.45,2.76-1,4.09-1.5l.6-.58,1.13-1.12h0l.23-.23.22-.22h0l.6-.6.6.6.22.23,1.33,1.33.53.54.1.06c1.35.55,2.72,1,4.1,1.5l1.19.39-.51-.51-4.46-4.49-.21-.22h0l-1.16-1.17,3.6-3.63,2.1,2.1h0l.21.21,9.29,9.34.3.31.08.07h.1c1,.14,2,.26,2.94.34l.83.08-.34-.35L97.21,111.05l0,0-2.59-2.61,3.61-3.63,2.86,2.89.21.2.12.13.1.1,14.26,14.34.21.2.09.1h.13c.82,0,1.64-.09,2.45-.16l.65,0-.29-.29-15.66-15.75-.22-.22-3.19-3.21,3.61-3.63,3.2,3.22.22.22h0l18.38,18.49.15.15.12.11.15,0c.72-.14,1.43-.31,2.13-.48l.53-.12-.26-.26L108.56,101h0l-.22-.22-3.08-3.11,3.6-3.62h0l2.44,2.45.21.2,22.22,22.36.11.11.14.13.17-.06c.64-.23,1.27-.47,1.9-.72l.43-.17-.24-.24L112.91,94.66l-.21-.21-2.11-2.13,3.6-3.63h0l1.19,1.2.21.22,25.61,25.76.24.23.2-.1,1.71-.9.35-.2-.23-.23L117,88.06l-.23-.24h0l-.2-.21-.64-.64,2.21-2.23.56-.55.25-.56c.08-.21.16-.43.25-.63h0l28.75,28.92.05,0,.18.18.21-.15q.76-.52,1.53-1.08l.28-.21-.22-.22L120.08,80.42l.55-1.66-.53.52-.57.58-3.61-3.63,3.61-3.63,1.6,1.61.25.25L154,107.24l0,0,.2.2.22-.19c.46-.4.91-.82,1.36-1.25l.22-.21-.22-.23L122.09,71.71l-.15-.16-.11-.11-.58-.57.93-.94.37-.37v-.1c.13-.95.23-1.94.32-2.94l.07-.83-.34.34-3.08,3.1-3.61-3.63,3.61-3.63,2.88,2.89.28.28,36.63,36.86h0l.22.22.37-.42c.36-.41.72-.81,1.06-1.22l.18-.22-.23-.22L123.09,62l-.29-.31-1.55-1.54,1.55-1.56.31-.31V54.8l-.31.31-3.27,3.29-3.61-3.62,3.61-3.64h0l3.27,3.3.31.3L164,95.88l0,0,.23.23.2-.3c.28-.4.54-.81.8-1.22l.36-.57-.23-.24L122.8,51l-.3-.3-1.25-1.25,1.55-1.56.31-.31V44.08l-.31.31-3.27,3.28h0l-3.61-3.62,3.61-3.64h0l3.27,3.3.31.3L168,89.2l.23.24.2-.38c.29-.58.58-1.16.86-1.75l.09-.19-.24-.24L122.8,40.24l-.3-.31-1.25-1.25,1.55-1.56.31-.3V33.35l-.31.3L119.53,37h0l-3.61-3.63,3.61-3.63h0L122.8,33l.31.3,48.06,48.35.09.09.25.25.22-.65q.32-.87.6-1.77l0-.17-.25-.25L122.8,29.51l-.3-.31h0L121.25,28l1.55-1.56.31-.3V22.62l-.31.3-3.27,3.3-3.61-3.63L119.53,19l3.27,3.29.31.31,50.32,50.62.14.13.27.27L174,73c.14-.73.28-1.47.4-2.22l0-.15-.28-.28L122.8,18.78l-.3-.31-1.25-1.25,1.55-1.56.31-.3V11.89l-.31.3-3.27,3.3-3.61-3.63,3.61-3.63h0l3.27,3.29.31.31h0L174.5,63.52l.19.19L175,64l0-1.18c0-.48,0-1,0-1.44v-.78l-.3-.3Zm-13.94.18,3.61,3.63-3.61,3.63-3.6-3.63ZM82.2,53h0l-3.61-3.63,3.61-3.63h0l3.61,3.63Zm5.33-1.9,3.61,3.64L87.53,58.4l-3.61-3.62ZM82.2,56.5l3.61,3.64L82.2,63.76h0l-3.61-3.62Zm5.33,5.37,3.61,3.63-3.61,3.63L83.92,65.5Zm1.73-1.73,3.6-3.64,3.61,3.64-3.6,3.62Zm0-10.73,3.6-3.63,3.61,3.63L92.86,53Zm0-10.73,3.6-3.63,3.61,3.63-3.61,3.63ZM91.14,44l-3.61,3.63L83.92,44l3.61-3.63ZM82.2,42.31h0l-3.61-3.63,3.61-3.63h0l3.61,3.63ZM80.47,44l-3.6,3.63h0L73.26,44l3.6-3.62h0Zm-3.6,7.1,3.6,3.64-3.6,3.62h0l-3.6-3.62,3.6-3.64h0Zm0,10.73,3.6,3.63-3.61,3.63-3.6-3.63,3.6-3.63Zm5.33,5.36h0l3.61,3.63L82.2,74.49h0l-3.61-3.62Zm5.33,5.37,3.61,3.63-3.61,3.63-3.61-3.63Zm1.73-1.73,3.61-3.64h0l3.6,3.63-3.61,3.62Zm5.33-5.37,3.61-3.63,3.61,3.63L98.2,69.13Zm0-10.72,3.61-3.64h0l3.61,3.64L98.2,58.4Zm0-10.74,3.61-3.62L101.81,44,98.2,47.67Zm0-10.72,3.61-3.63,3.61,3.63L98.2,37Zm-1.73-1.74L89.26,28l3.61-3.63L96.47,28Zm-1.72,1.74L87.53,37l-3.61-3.63,3.61-3.63ZM82.2,31.58,78.59,28l3.61-3.63L85.81,28Zm-1.73,1.74L76.87,37h0l-3.6-3.63,3.6-3.63Zm-8.93-1.74L67.93,28l3.6-3.64h0L75.14,28Zm0,3.47,3.6,3.63-3.6,3.63-3.61-3.63,3.6-3.63Zm3.6,14.36L71.54,53h0l-3.6-3.63,3.61-3.63Zm-3.6,7.1h0l3.6,3.64-3.6,3.63h0l-3.6-3.63,3.6-3.63Zm0,10.73,3.6,3.63-3.6,3.62h0l-3.6-3.62,3.6-3.63Zm5.32,5.36,3.61,3.63-3.6,3.63h0l-3.6-3.63ZM82.2,78h0l3.61,3.63L82.2,85.22h0l-3.61-3.63Zm5.33,5.37L91.14,87l-3.61,3.63L83.92,87Zm1.73-1.74L92.86,78l3.61,3.63-3.61,3.63Zm5.33-5.36L98.2,72.6l3.61,3.63L98.2,79.86Zm5.33-5.36,3.61-3.63,3.61,3.63-3.61,3.62Zm0-10.73,3.61-3.64h0l3.61,3.63-3.61,3.63Zm0-10.73,3.61-3.63h0l3.61,3.63L103.53,53Zm3.61-7.1-3.61-3.63,3.61-3.63,3.61,3.63-3.61,3.63ZM99.92,28l3.61-3.63L107.14,28l-3.61,3.62Zm0-10.73,3.61-3.62,3.61,3.62-3.61,3.63Zm1.89,5.37L98.2,26.22l-3.61-3.63L98.2,19Zm-8.94-1.74-3.61-3.63,3.6-3.63,3.61,3.63Zm-1.73,1.74-3.61,3.63-3.61-3.63L87.53,19ZM82.2,20.85l-3.61-3.63,3.61-3.63,3.61,3.63Zm-1.73,1.74-3.61,3.63-3.6-3.63L76.86,19Zm-8.93-1.74h0l-3.6-3.63,3.61-3.62,3.6,3.62Zm-1.73,1.74L66.2,26.22l-3.61-3.63L66.2,19Zm0,10.73L66.2,37l-3.61-3.63,3.61-3.63Zm0,10.73L66.2,47.67,62.59,44l3.61-3.63Zm0,10.73L66.2,58.4l-3.61-3.62,3.61-3.64Zm0,10.72L66.2,69.13,62.59,65.5l3.61-3.63Zm0,10.73L66.2,79.85l-3.61-3.62L66.2,72.6ZM71.54,78l3.6,3.63-3.6,3.63h0l-3.6-3.63Zm5.32,5.37h0L80.47,87l-3.6,3.63h0L73.26,87Zm5.34,5.36,3.61,3.63L82.2,96l-3.61-3.63Zm5.33,5.37,3.61,3.62-3.61,3.64-3.61-3.64Zm1.73-1.74,3.6-3.63h0l3.61,3.63L92.86,96ZM94.59,87l3.61-3.63L101.81,87,98.2,90.59Zm5.33-5.37L103.53,78l3.61,3.63-3.61,3.63Zm5.34-5.36,3.6-3.63h0l3.61,3.63-3.61,3.62h0Zm3.6-7.1-3.6-3.63,3.6-3.63,3.61,3.63-3.61,3.63Zm0-10.73-3.6-3.62,3.6-3.64h0l3.61,3.64-3.61,3.62Zm0-10.73-3.6-3.62,3.6-3.64h0L112.47,44Zm0-10.72-3.6-3.63,3.6-3.63,3.61,3.63L108.86,37Zm0-10.73-3.6-3.63,3.6-3.63h0l3.61,3.63-3.61,3.63ZM103.53,2.86h0l3.61,3.64-3.61,3.63L99.92,6.5Zm-1.72,9L98.2,15.49l-3.61-3.63L98.2,8.23Zm-9-9L96.47,6.5l-3.61,3.63L89.26,6.5Zm-1.72,9-3.61,3.63-3.61-3.63,3.61-3.63Zm-8.94-9h0L85.81,6.5,82.2,10.13,78.59,6.5ZM76.87,8.23l3.6,3.63-3.61,3.63-3.6-3.63,3.6-3.63ZM71.54,2.86l3.6,3.64-3.6,3.63h0L67.93,6.5Zm-1.73,9L66.2,15.49l-3.61-3.63L66.2,8.23ZM57.26,6.5l3.61-3.64h0L64.48,6.5l-3.61,3.63Zm0,10.72,3.61-3.62,3.61,3.62-3.61,3.63Zm0,10.73,3.61-3.63L64.48,28l-3.61,3.62Zm0,10.73,3.61-3.63,3.61,3.63-3.61,3.63Zm0,10.73,3.61-3.63,3.61,3.63L60.87,53Zm0,10.73,3.61-3.63,3.61,3.63-3.61,3.63Zm0,10.73,3.61-3.63,3.61,3.63-3.61,3.62Zm0,10.72L60.87,78l3.61,3.63-3.61,3.63ZM62.59,87l3.61-3.64L69.81,87,66.2,90.59Zm8.94,9-3.6-3.63,3.6-3.63h0l3.6,3.63L71.54,96Zm5.33,5.36h0l-3.6-3.63,3.6-3.63,3.61,3.62-3.6,3.63Zm5.34,5.37-3.61-3.63,3.61-3.63h0l3.61,3.63-3.61,3.63Zm5.33,5.37-3.61-3.64,3.61-3.63,3.61,3.63Zm5.33-5.37-3.6-3.63,3.6-3.63,3.61,3.63Zm5.34-5.36h0l-3.61-3.63,3.61-3.62,3.61,3.63ZM103.53,96l-3.61-3.63,3.61-3.63,3.61,3.63Zm5.33-5.36L105.26,87l3.6-3.64L112.47,87Zm9-9-3.61,3.63-3.61-3.63L114.2,78Zm0-10.72-3.61,3.62-3.62-3.62,3.61-3.63h0Zm0-10.73-3.61,3.63-3.61-3.63,3.61-3.63Zm0-10.73L114.2,53l-3.61-3.63,3.61-3.63Zm0-10.73-3.61,3.63h0l-3.61-3.63,3.61-3.63h0Zm0-10.73-3.61,3.63L110.59,28l3.61-3.64Zm0-10.73-3.61,3.63-3.61-3.63,3.6-3.62h0Zm-3.61-7.09L110.59,6.5l3.61-3.63h0l3.61,3.64Z"/><polygon class="cls-1" points="10.09 0.3 10.39 0 6.94 0 6.64 0.3 0.3 6.68 0 6.98 0 10.45 0.3 10.15 10.09 0.3"/><polygon class="cls-1" points="20.75 0.3 21.05 0 17.61 0 17.3 0.3 0.3 17.41 0.09 17.62 0 17.71 0 21.18 0.3 20.88 20.75 0.3"/><polygon class="cls-1" points="31.42 0.3 31.72 0 28.27 0 27.97 0.3 0.3 28.13 0.09 28.35 0 28.43 0 31.9 0.3 31.6 31.42 0.3"/><polygon class="cls-1" points="0.09 39.08 0 39.16 0 42.63 0.3 42.33 42.09 0.3 42.39 0 38.94 0 38.64 0.3 0.3 38.86 0.09 39.08"/><polygon class="cls-1" points="51.96 1.1 51.96 1.11 52.26 0.8 52.38 0.68 52.48 0.58 52.48 0.58 52.72 0.3 52.99 0 52.56 0 52.26 0 49.6 0 49.31 0.3 0.3 49.59 0.09 49.81 0 49.89 0 53.36 0.3 53.06 51.96 1.1"/></g></g></svg>