<svg xmlns="http://www.w3.org/2000/svg" viewBox="0 0 227.38 68.7"><defs><style>.cls-1{fill:#10cfc9;}.cls-2{fill:#002d5d;}.cls-3{fill:#e54360;}</style></defs><g id="Livello_2" data-name="Livello 2"><g id="Livello_1-2" data-name="Livello 1"><path class="cls-1" d="M97.84,0H68.7V34.35A34.37,34.37,0,0,1,48.92,65.47,34.37,34.37,0,0,0,97.84,34.35V0"/><path class="cls-2" d="M68.7,0H29.14V34.35A34.37,34.37,0,0,0,48.92,65.47,34.37,34.37,0,0,0,68.7,34.35V0"/><path class="cls-3" d="M29.14,34.35V0H0V34.35A34.29,34.29,0,0,0,48.88,65.44,34.33,34.33,0,0,1,29.14,34.35"/><path class="cls-2" d="M135.5,16.08a.82.82,0,0,1-.84-.57L129.91,1.22a.81.81,0,0,1-.06-.24A.58.58,0,0,1,130,.53a.69.69,0,0,1,.49-.18h1.9a.84.84,0,0,1,.5.17.77.77,0,0,1,.32.43l3.37,11,3-11a.8.8,0,0,1,.31-.43.87.87,0,0,1,.51-.17h1.9a.86.86,0,0,1,.5.17.76.76,0,0,1,.31.43l3.26,11,3.13-11a.71.71,0,0,1,.31-.43.84.84,0,0,1,.5-.17h1.77a.69.69,0,0,1,.49.18.62.62,0,0,1,.19.45.81.81,0,0,1-.06.24l-4.48,14.29A.81.81,0,0,1,148,16a.9.9,0,0,1-.53.16l-2.15,0a1,1,0,0,1-.53-.15.73.73,0,0,1-.31-.42L141.37,5.22l-2.88,10.29a.81.81,0,0,1-.31.44.9.9,0,0,1-.53.16Z"/><path class="cls-2" d="M159.67,15.05a6.49,6.49,0,0,1-3.22-5.62V6.49A6.49,6.49,0,0,1,159.67.87a6.49,6.49,0,0,1,6.49,0,6.56,6.56,0,0,1,2.35,2.36,6.39,6.39,0,0,1,.87,3.26V8.31a1.1,1.1,0,0,1-.34.83,1.12,1.12,0,0,1-.83.34h-8.5v.14a3.18,3.18,0,0,0,3.2,3.2h4.32a.57.57,0,0,1,.41.17.52.52,0,0,1,.16.4v2a.55.55,0,0,1-.57.57h-4.32a6.24,6.24,0,0,1-3.24-.87m6.45-8.5V6.3a3.21,3.21,0,1,0-6.41,0v.25Z"/><path class="cls-2" d="M183.35,15a4.31,4.31,0,0,1-1.42-3.35,4.09,4.09,0,0,1,1.3-3.11A6.68,6.68,0,0,1,186.9,6.9c.4,0,.78-.09,1.14-.16q1.91-.23,2.31-.33a1.05,1.05,0,0,0,1-1.14,1.92,1.92,0,0,0-.82-1.62A3.48,3.48,0,0,0,188.45,3a3.52,3.52,0,0,0-3.21,1.6.61.61,0,0,1-.51.36.57.57,0,0,1-.36-.11l-1.52-1a.54.54,0,0,1-.24-.46,1.08,1.08,0,0,1,0-.25A5.41,5.41,0,0,1,185,.83,7.33,7.33,0,0,1,188.5,0a7,7,0,0,1,3.15.68,5,5,0,0,1,2.11,1.93,5.47,5.47,0,0,1,.75,2.88v9.86a.57.57,0,0,1-.17.41.58.58,0,0,1-.4.16h-1.85a.59.59,0,0,1-.41-.15.54.54,0,0,1-.16-.42V14.29a5.94,5.94,0,0,1-4.46,2A5.32,5.32,0,0,1,183.35,15m6-2.16a4.44,4.44,0,0,0,1.53-1.42,3.33,3.33,0,0,0,.59-1.87V9l-2,.3c-1.11.13-1.82.23-2.15.3-1.48.27-2.23.91-2.23,1.93a1.62,1.62,0,0,0,.63,1.34,2.53,2.53,0,0,0,1.66.5,4,4,0,0,0,2-.54"/><path class="cls-2" d="M199.59,15.76a.56.56,0,0,1-.16-.41v-2a.56.56,0,0,1,.16-.41.52.52,0,0,1,.4-.16h2.07V3.42h-2.34a.57.57,0,0,1-.41-.16.54.54,0,0,1-.16-.41V.92a.52.52,0,0,1,.16-.4.58.58,0,0,1,.41-.17h4.21a1.16,1.16,0,0,1,1.17,1.17v1l1.47-1.17A6.53,6.53,0,0,1,208,.42a3.58,3.58,0,0,1,1.41-.26h.85a.53.53,0,0,1,.4.17.53.53,0,0,1,.17.4v2.1a.54.54,0,0,1-.17.4.53.53,0,0,1-.4.17h-.71a2.85,2.85,0,0,0-1.22.24,9.45,9.45,0,0,0-1.58,1.09l-1.49,1.19v6.85h2.69a.54.54,0,0,1,.4.16.57.57,0,0,1,.17.41v2a.57.57,0,0,1-.17.41.58.58,0,0,1-.4.16H200a.56.56,0,0,1-.4-.16"/><path class="cls-2" d="M217.67,15.05a6.49,6.49,0,0,1-3.22-5.62V6.49A6.49,6.49,0,0,1,217.67.87a6.49,6.49,0,0,1,6.49,0,6.56,6.56,0,0,1,2.35,2.36,6.39,6.39,0,0,1,.87,3.26V8.31a1.16,1.16,0,0,1-1.17,1.17h-8.5v.14a3.18,3.18,0,0,0,3.2,3.2h4.32a.57.57,0,0,1,.41.17.52.52,0,0,1,.16.4v2a.55.55,0,0,1-.57.57h-4.32a6.24,6.24,0,0,1-3.24-.87m6.45-8.5V6.3a3.21,3.21,0,1,0-6.41,0v.25Z"/><path class="cls-2" d="M133.08,46.69a.58.58,0,0,1-.16-.41v-12h-2.14a.54.54,0,0,1-.41-.16.57.57,0,0,1-.17-.41v-1.9a.57.57,0,0,1,.17-.41.54.54,0,0,1,.41-.16h2.14v-.87A4.6,4.6,0,0,1,134.24,27a4.67,4.67,0,0,1,3.43-1.31h2.56a.57.57,0,0,1,.41.17.56.56,0,0,1,.16.4v1.85a.6.6,0,0,1-.16.41.56.56,0,0,1-.41.16h-2.58a1.38,1.38,0,0,0-1.07.42,1.56,1.56,0,0,0-.4,1.13v1.06h10a1.3,1.3,0,0,1,1,.39,1.35,1.35,0,0,1,.4,1V43.76h2.2a.52.52,0,0,1,.4.16.57.57,0,0,1,.17.41v2a.55.55,0,0,1-.17.41.52.52,0,0,1-.4.16h-4.1a1.33,1.33,0,0,1-1.36-1.35V34.33h-8.1v12a.54.54,0,0,1-.16.41.56.56,0,0,1-.41.16h-2.12a.56.56,0,0,1-.41-.16m11.39-17.36a.54.54,0,0,1-.17-.4V25.8a.57.57,0,0,1,.17-.41.56.56,0,0,1,.4-.16h2.07a.55.55,0,0,1,.57.57v3.13a.58.58,0,0,1-.16.4.57.57,0,0,1-.41.17h-2.07a.53.53,0,0,1-.4-.17"/><path class="cls-2" d="M159.58,46.68a4.83,4.83,0,0,1-1.75-1.56v1.16a.54.54,0,0,1-.16.41.56.56,0,0,1-.41.16H155.5a.54.54,0,0,1-.41-.16.55.55,0,0,1-.17-.41V26.62a.55.55,0,0,1,.17-.41.54.54,0,0,1,.41-.16h2.11a.55.55,0,0,1,.57.57v6.05a4.67,4.67,0,0,1,3.65-1.73,5.7,5.7,0,0,1,3,.85,6.39,6.39,0,0,1,2.2,2.3,6.2,6.2,0,0,1,.81,3.09V41a6.06,6.06,0,0,1-.83,3.1,6.33,6.33,0,0,1-2.22,2.29,5.7,5.7,0,0,1-3,.86,5,5,0,0,1-2.25-.53m4.11-3.53a3.11,3.11,0,0,0,.93-2.27V37.26A3.21,3.21,0,0,0,159.14,35a3,3,0,0,0-1,2.26v3.62a3.06,3.06,0,0,0,1,2.27,3.25,3.25,0,0,0,4.55,0"/><path class="cls-2" d="M176,46a6.49,6.49,0,0,1-3.22-5.62V37.43a6.34,6.34,0,0,1,.87-3.26A6.44,6.44,0,0,1,176,31.8a6.55,6.55,0,0,1,6.49,0,6.44,6.44,0,0,1,2.35,2.37,6.34,6.34,0,0,1,.87,3.26v1.82a1.16,1.16,0,0,1-1.17,1.17h-8.5v.13a3.21,3.21,0,0,0,3.21,3.21h4.31a.54.54,0,0,1,.41.16.57.57,0,0,1,.17.41v2a.55.55,0,0,1-.17.41.54.54,0,0,1-.41.16h-4.31A6.19,6.19,0,0,1,176,46m6.45-8.5v-.24a3.21,3.21,0,1,0-6.41,0v.24Z"/><path class="cls-2" d="M190.27,46.69a.55.55,0,0,1-.17-.41v-2a.54.54,0,0,1,.17-.4.55.55,0,0,1,.41-.17h2.06V34.36H190.4a.58.58,0,0,1-.57-.57V31.86a.57.57,0,0,1,.17-.41.52.52,0,0,1,.4-.16h4.22a1.16,1.16,0,0,1,1.16,1.17v1l1.47-1.16a6.16,6.16,0,0,1,1.41-.91,3.43,3.43,0,0,1,1.42-.26h.84a.54.54,0,0,1,.4.16.57.57,0,0,1,.17.41v2.09a.57.57,0,0,1-.17.41.54.54,0,0,1-.4.16h-.71a2.71,2.71,0,0,0-1.22.25,9.23,9.23,0,0,0-1.58,1.08l-1.49,1.2V43.7h2.69a.57.57,0,0,1,.41.17.58.58,0,0,1,.16.4v2a.58.58,0,0,1-.16.41.56.56,0,0,1-.41.16h-7.93a.54.54,0,0,1-.41-.16"/></g></g></svg>