<svg xmlns="http://www.w3.org/2000/svg" viewBox="0 0 227.63 68.87"><defs><style>.cls-1{fill:#e54360;}.cls-2{fill:#ffc3d2;}.cls-3{fill:#ffafc3;}</style></defs><g id="Livello_2" data-name="Livello 2"><g id="Livello_1-2" data-name="Livello 1"><path class="cls-1" d="M135.75,17a.83.83,0,0,1-.84-.57L130.16,2.16a.79.79,0,0,1-.06-.25.62.62,0,0,1,.19-.45.73.73,0,0,1,.49-.17h1.9a.88.88,0,0,1,.51.16.83.83,0,0,1,.31.44l3.37,11,3-11a.8.8,0,0,1,.32-.44.83.83,0,0,1,.5-.16h1.9a.83.83,0,0,1,.5.16.85.85,0,0,1,.32.44l3.26,11,3.12-11a.78.78,0,0,1,.31-.44.83.83,0,0,1,.5-.16h1.77a.73.73,0,0,1,.49.17.62.62,0,0,1,.19.45.79.79,0,0,1-.06.25l-4.48,14.29a.79.79,0,0,1-.31.43.88.88,0,0,1-.53.17l-2.15,0a1,1,0,0,1-.53-.15.78.78,0,0,1-.31-.42l-3.07-10.3-2.88,10.3a.79.79,0,0,1-.31.43.9.9,0,0,1-.53.17Z"/><path class="cls-1" d="M159.92,16a6.49,6.49,0,0,1-3.22-5.62V7.43a6.34,6.34,0,0,1,.87-3.26,6.44,6.44,0,0,1,11.19,0,6.34,6.34,0,0,1,.87,3.26V9.25a1.13,1.13,0,0,1-.34.83,1.16,1.16,0,0,1-.83.34H160v.13a3.06,3.06,0,0,0,.94,2.27,3.1,3.1,0,0,0,2.26.94h4.33a.54.54,0,0,1,.4.16.56.56,0,0,1,.16.41v2a.54.54,0,0,1-.16.41.54.54,0,0,1-.4.16h-4.33a6.3,6.3,0,0,1-3.24-.87m6.45-8.5V7.24A3.19,3.19,0,0,0,163.16,4,3.06,3.06,0,0,0,160.9,5,3.06,3.06,0,0,0,160,7.24v.24Z"/><path class="cls-1" d="M183.61,15.92a4.32,4.32,0,0,1-1.43-3.36,4.11,4.11,0,0,1,1.3-3.11,6.78,6.78,0,0,1,3.67-1.61c.4,0,.78-.1,1.14-.17,1.27-.14,2-.25,2.31-.32a1.06,1.06,0,0,0,1-1.14,1.93,1.93,0,0,0-.83-1.62A3.42,3.42,0,0,0,188.7,4a3.5,3.5,0,0,0-3.21,1.6.59.59,0,0,1-.51.35.52.52,0,0,1-.36-.11l-1.52-1a.52.52,0,0,1-.24-.46,1,1,0,0,1,0-.24,5.59,5.59,0,0,1,2.34-2.33,7.32,7.32,0,0,1,3.5-.82,7,7,0,0,1,3.16.67A5.09,5.09,0,0,1,194,3.54a5.52,5.52,0,0,1,.75,2.88v9.86a.58.58,0,0,1-.16.41.56.56,0,0,1-.41.16h-1.85a.59.59,0,0,1-.41-.15.52.52,0,0,1-.16-.42V15.22a5.9,5.9,0,0,1-4.45,2,5.3,5.3,0,0,1-3.71-1.29m6-2.16a4.56,4.56,0,0,0,1.53-1.43,3.33,3.33,0,0,0,.59-1.86V9.93l-2,.3c-1.1.12-1.82.22-2.15.29-1.48.28-2.22.92-2.22,1.93a1.66,1.66,0,0,0,.62,1.35,2.61,2.61,0,0,0,1.66.5,4,4,0,0,0,2-.54"/><path class="cls-1" d="M199.84,16.69a.54.54,0,0,1-.16-.41v-2a.52.52,0,0,1,.16-.4.55.55,0,0,1,.41-.17h2.06V4.36H200a.55.55,0,0,1-.41-.17.53.53,0,0,1-.17-.4V1.86a.57.57,0,0,1,.17-.41.54.54,0,0,1,.41-.16h4.21a1.09,1.09,0,0,1,.82.34,1.1,1.1,0,0,1,.34.83v1l1.47-1.16a6.38,6.38,0,0,1,1.41-.91,3.43,3.43,0,0,1,1.42-.26h.84a.56.56,0,0,1,.41.16.58.58,0,0,1,.16.41V3.76a.6.6,0,0,1-.16.41.56.56,0,0,1-.41.16h-.71a2.85,2.85,0,0,0-1.22.24A10.63,10.63,0,0,0,207,5.66l-1.49,1.2V13.7h2.69a.57.57,0,0,1,.41.17.52.52,0,0,1,.16.4v2a.54.54,0,0,1-.16.41.56.56,0,0,1-.41.16h-7.93a.54.54,0,0,1-.41-.16"/><path class="cls-1" d="M217.92,16a6.49,6.49,0,0,1-3.22-5.62V7.43a6.34,6.34,0,0,1,.87-3.26,6.44,6.44,0,0,1,11.19,0,6.34,6.34,0,0,1,.87,3.26V9.25a1.13,1.13,0,0,1-.34.83,1.16,1.16,0,0,1-.83.34H218v.13a3.06,3.06,0,0,0,.94,2.27,3.1,3.1,0,0,0,2.26.94h4.32a.54.54,0,0,1,.41.16.56.56,0,0,1,.16.41v2a.55.55,0,0,1-.57.57h-4.32a6.3,6.3,0,0,1-3.24-.87m6.45-8.5V7.24A3.06,3.06,0,0,0,223.43,5a3.2,3.2,0,0,0-4.53,0A3.06,3.06,0,0,0,218,7.24v.24Z"/><path class="cls-1" d="M133.34,47.63a.57.57,0,0,1-.17-.41V35.27H131a.55.55,0,0,1-.41-.17.52.52,0,0,1-.16-.4V32.79a.54.54,0,0,1,.16-.4.55.55,0,0,1,.41-.17h2.14v-.87a4.6,4.6,0,0,1,1.32-3.42,4.67,4.67,0,0,1,3.44-1.3h2.55a.54.54,0,0,1,.41.16.56.56,0,0,1,.16.41v1.85a.54.54,0,0,1-.16.4.55.55,0,0,1-.41.17H137.9a1.39,1.39,0,0,0-1.07.42,1.54,1.54,0,0,0-.4,1.12v1.06h10a1.31,1.31,0,0,1,1,.4,1.28,1.28,0,0,1,.4,1V44.69H150a.57.57,0,0,1,.41.17.52.52,0,0,1,.16.4v2a.55.55,0,0,1-.57.57h-4.1a1.33,1.33,0,0,1-1.36-1.36V35.27h-8.1V47.22a.56.56,0,0,1-.16.41.54.54,0,0,1-.41.16h-2.12a.54.54,0,0,1-.4-.16m11.38-17.36a.56.56,0,0,1-.16-.41V26.74a.55.55,0,0,1,.57-.57h2.06a.56.56,0,0,1,.41.16.54.54,0,0,1,.16.41v3.12a.55.55,0,0,1-.57.57h-2.06a.54.54,0,0,1-.41-.16"/><path class="cls-1" d="M159.84,47.61a4.61,4.61,0,0,1-1.76-1.56v1.17a.55.55,0,0,1-.57.57h-1.76a.54.54,0,0,1-.41-.16.56.56,0,0,1-.16-.41V27.55a.56.56,0,0,1,.16-.41.58.58,0,0,1,.41-.16h2.12a.58.58,0,0,1,.4.16.57.57,0,0,1,.17.41v6.06a4.57,4.57,0,0,1,1.64-1.29,4.67,4.67,0,0,1,2-.45,5.68,5.68,0,0,1,3,.86,6.36,6.36,0,0,1,3,5.39V41.9a6.12,6.12,0,0,1-.83,3.09,6.47,6.47,0,0,1-2.23,2.3,5.63,5.63,0,0,1-3,.85,4.77,4.77,0,0,1-2.24-.53m4.1-3.53a3.09,3.09,0,0,0,.93-2.27V38.2a3.22,3.22,0,0,0-5.48-2.27,3.05,3.05,0,0,0-.95,2.27v3.61a3,3,0,0,0,.95,2.27,3.22,3.22,0,0,0,4.55,0"/><path class="cls-1" d="M176.27,46.92a6.49,6.49,0,0,1-2.35-2.36,6.37,6.37,0,0,1-.87-3.26V38.36a6.39,6.39,0,0,1,.87-3.26,6.49,6.49,0,0,1,2.35-2.36,6.49,6.49,0,0,1,6.49,0,6.49,6.49,0,0,1,2.35,2.36,6.39,6.39,0,0,1,.87,3.26v1.82a1.16,1.16,0,0,1-1.16,1.17h-8.51v.14a3.19,3.19,0,0,0,3.21,3.2h4.32a.53.53,0,0,1,.4.17.54.54,0,0,1,.17.4v2a.57.57,0,0,1-.17.41.52.52,0,0,1-.4.16h-4.32a6.31,6.31,0,0,1-3.25-.87m6.45-8.5v-.25a3.21,3.21,0,0,0-6.41,0v.25Z"/><path class="cls-1" d="M190.52,47.63a.56.56,0,0,1-.16-.41v-2a.56.56,0,0,1,.16-.41.54.54,0,0,1,.41-.16H193V35.29h-2.33a.54.54,0,0,1-.41-.16.55.55,0,0,1-.17-.41V32.79a.53.53,0,0,1,.17-.4.55.55,0,0,1,.41-.17h4.21A1.16,1.16,0,0,1,196,33.39v1l1.47-1.17a6.78,6.78,0,0,1,1.41-.91,3.6,3.6,0,0,1,1.42-.26h.84a.57.57,0,0,1,.41.17.56.56,0,0,1,.16.4v2.1a.56.56,0,0,1-.16.4.57.57,0,0,1-.41.17h-.71a2.85,2.85,0,0,0-1.22.24,9.49,9.49,0,0,0-1.57,1.09l-1.5,1.19v6.85h2.69a.55.55,0,0,1,.57.57v2a.55.55,0,0,1-.57.57h-7.93a.54.54,0,0,1-.41-.16"/><path class="cls-2" d="M0,0V34.43A34.44,34.44,0,0,0,34.43,68.87h0A34.44,34.44,0,0,0,68.87,34.43V0H0"/><path class="cls-3" d="M98.08,0H68.87V34.43A34.46,34.46,0,0,1,49,65.63a34.45,34.45,0,0,0,49-31.2V0"/><path class="cls-1" d="M68.87,0H29.21V34.43A34.44,34.44,0,0,0,49,65.63a34.46,34.46,0,0,0,19.83-31.2V0"/></g></g></svg>