<svg xmlns="http://www.w3.org/2000/svg" viewBox="0 0 97.97 151.43"><defs><style>.cls-1,.cls-2{fill:#fff;}.cls-2{isolation:isolate;opacity:0.5;}</style></defs><g id="Livello_2" data-name="Livello 2"><g id="Livello_1-2" data-name="Livello 1"><path class="cls-1" d="M6.1,120.31a.82.82,0,0,1-.84-.57L.5,105.45a1.08,1.08,0,0,1,0-.25.55.55,0,0,1,.19-.44.67.67,0,0,1,.49-.18H3a.86.86,0,0,1,.82.6l3.36,11,3-11a.81.81,0,0,1,.31-.44.83.83,0,0,1,.5-.16h1.9a.86.86,0,0,1,.51.16.81.81,0,0,1,.31.44l3.26,11,3.12-11a.86.86,0,0,1,.82-.6h1.76a.67.67,0,0,1,.49.18.55.55,0,0,1,.19.44.72.72,0,0,1,0,.25l-4.48,14.29a.84.84,0,0,1-.31.43.94.94,0,0,1-.54.17l-2.14,0a.94.94,0,0,1-.53-.15.69.69,0,0,1-.31-.42L12,109.44l-2.89,10.3a.74.74,0,0,1-.31.43.88.88,0,0,1-.53.17Z"/><path class="cls-1" d="M30.26,119.28a6.41,6.41,0,0,1-2.34-2.37,6.25,6.25,0,0,1-.88-3.26v-2.93a6.28,6.28,0,0,1,.88-3.26,6.38,6.38,0,0,1,2.34-2.36,6.49,6.49,0,0,1,6.49,0A6.43,6.43,0,0,1,40,110.72v1.82a1.12,1.12,0,0,1-.34.83,1.09,1.09,0,0,1-.82.34H30.3v.13a3.21,3.21,0,0,0,3.21,3.21h4.32a.55.55,0,0,1,.57.57v2a.56.56,0,0,1-.16.4.57.57,0,0,1-.41.17H33.51A6.31,6.31,0,0,1,30.26,119.28Zm6.45-8.51v-.24a3.2,3.2,0,1,0-6.4,0v.24Z"/><path class="cls-1" d="M54,119.21a4.32,4.32,0,0,1-1.42-3.36,4.11,4.11,0,0,1,1.3-3.11,6.74,6.74,0,0,1,3.67-1.61,10.07,10.07,0,0,0,1.14-.17c1.26-.14,2-.25,2.31-.32a1.06,1.06,0,0,0,1-1.14,1.91,1.91,0,0,0-.83-1.62,3.37,3.37,0,0,0-2.07-.61,3.5,3.5,0,0,0-3.21,1.6.63.63,0,0,1-.52.36.56.56,0,0,1-.35-.11l-1.52-1a.5.5,0,0,1-.24-.46.72.72,0,0,1,0-.24,5.48,5.48,0,0,1,2.34-2.33,7.32,7.32,0,0,1,3.5-.82,6.86,6.86,0,0,1,3.15.68,5,5,0,0,1,2.11,1.92,5.52,5.52,0,0,1,.74,2.88v9.87a.52.52,0,0,1-.16.4.55.55,0,0,1-.41.17H62.68a.57.57,0,0,1-.4-.15.55.55,0,0,1-.17-.43v-1a5.91,5.91,0,0,1-4.45,2A5.32,5.32,0,0,1,54,119.21Zm6-2.16a4.41,4.41,0,0,0,1.54-1.43,3.33,3.33,0,0,0,.59-1.86v-.54l-2,.3a21.39,21.39,0,0,0-2.15.3c-1.49.27-2.23.91-2.23,1.92a1.64,1.64,0,0,0,.63,1.35,2.59,2.59,0,0,0,1.66.5A4,4,0,0,0,59.91,117.05Z"/><path class="cls-1" d="M70.18,120a.58.58,0,0,1-.16-.41v-2a.58.58,0,0,1,.16-.4.57.57,0,0,1,.41-.17h2.07v-9.34H70.32a.55.55,0,0,1-.57-.57v-1.93a.55.55,0,0,1,.57-.57h4.21a1.16,1.16,0,0,1,1.17,1.17v1l1.47-1.16a6.16,6.16,0,0,1,1.41-.91,3.58,3.58,0,0,1,1.41-.26h.85a.54.54,0,0,1,.4.16.56.56,0,0,1,.16.41v2.09a.56.56,0,0,1-.16.41.54.54,0,0,1-.4.16h-.71a2.79,2.79,0,0,0-1.23.25A9.26,9.26,0,0,0,77.33,109l-1.5,1.2V117h2.69a.55.55,0,0,1,.41.17.54.54,0,0,1,.17.4v2a.58.58,0,0,1-.58.58H70.59A.57.57,0,0,1,70.18,120Z"/><path class="cls-1" d="M88.26,119.28a6.51,6.51,0,0,1-2.35-2.37,6.34,6.34,0,0,1-.87-3.26v-2.93a6.37,6.37,0,0,1,.87-3.26,6.49,6.49,0,0,1,2.35-2.36,6.49,6.49,0,0,1,6.49,0A6.43,6.43,0,0,1,98,110.72v1.82a1.12,1.12,0,0,1-.34.83,1.09,1.09,0,0,1-.82.34H88.3v.13a3.21,3.21,0,0,0,3.21,3.21h4.32a.56.56,0,0,1,.41.16.6.6,0,0,1,.16.41v2a.56.56,0,0,1-.16.4.57.57,0,0,1-.41.17H91.51A6.31,6.31,0,0,1,88.26,119.28Zm6.45-8.51v-.24a3.21,3.21,0,1,0-6.41,0v.24Z"/><path class="cls-1" d="M3.68,150.92a.56.56,0,0,1-.16-.41V138.56H1.37a.57.57,0,0,1-.41-.17A.56.56,0,0,1,.8,138v-1.91a.58.58,0,0,1,.16-.4.57.57,0,0,1,.41-.17H3.52v-.87a4.6,4.6,0,0,1,1.32-3.42,4.64,4.64,0,0,1,3.43-1.3h2.56a.54.54,0,0,1,.4.16.57.57,0,0,1,.17.41v1.85a.53.53,0,0,1-.17.4.54.54,0,0,1-.4.17H8.25a1.4,1.4,0,0,0-1.08.42,1.57,1.57,0,0,0-.39,1.12v1.06h10a1.35,1.35,0,0,1,1.35,1.36V148h2.2a.55.55,0,0,1,.41.17.54.54,0,0,1,.17.4v2a.57.57,0,0,1-.17.41.54.54,0,0,1-.41.16h-4.1a1.3,1.3,0,0,1-1-.39,1.35,1.35,0,0,1-.4-1V138.56H6.78v11.95a.55.55,0,0,1-.57.57H4.09A.54.54,0,0,1,3.68,150.92Zm11.38-17.36a.6.6,0,0,1-.16-.41V130a.58.58,0,0,1,.16-.41.56.56,0,0,1,.41-.16h2.07a.52.52,0,0,1,.4.16.55.55,0,0,1,.17.41v3.12a.57.57,0,0,1-.17.41.52.52,0,0,1-.4.16H15.47A.56.56,0,0,1,15.06,133.56Z"/><path class="cls-1" d="M30.18,150.9a4.58,4.58,0,0,1-1.75-1.56v1.17a.6.6,0,0,1-.16.41.56.56,0,0,1-.41.16H26.09a.52.52,0,0,1-.4-.16.57.57,0,0,1-.17-.41V130.84a.57.57,0,0,1,.17-.41.56.56,0,0,1,.4-.16h2.12a.58.58,0,0,1,.41.16.56.56,0,0,1,.16.41v6.06a4.6,4.6,0,0,1,1.65-1.29,4.66,4.66,0,0,1,2-.45,5.66,5.66,0,0,1,3,.86,6.3,6.3,0,0,1,2.21,2.29,6.24,6.24,0,0,1,.81,3.1v3.78a6,6,0,0,1-.83,3.09,6.36,6.36,0,0,1-2.22,2.3,5.69,5.69,0,0,1-3,.85A4.83,4.83,0,0,1,30.18,150.9Zm4.1-3.53a3.06,3.06,0,0,0,.94-2.27v-3.61a3.19,3.19,0,0,0-3.2-3.2,3.17,3.17,0,0,0-2.29.93,3.11,3.11,0,0,0-.95,2.27v3.61a3.07,3.07,0,0,0,.95,2.27,3.14,3.14,0,0,0,2.29.94A3.06,3.06,0,0,0,34.28,147.37Z"/><path class="cls-1" d="M46.62,150.21a6.49,6.49,0,0,1-2.35-2.36,6.37,6.37,0,0,1-.87-3.26v-2.93a6.34,6.34,0,0,1,.87-3.26A6.44,6.44,0,0,1,46.62,136a6.49,6.49,0,0,1,6.49,0,6.44,6.44,0,0,1,2.35,2.37,6.34,6.34,0,0,1,.87,3.26v1.81a1.1,1.1,0,0,1-.34.83,1.12,1.12,0,0,1-.83.34h-8.5v.14a3.18,3.18,0,0,0,3.2,3.2h4.32a.55.55,0,0,1,.41.17.54.54,0,0,1,.16.41v1.95a.56.56,0,0,1-.16.41.54.54,0,0,1-.41.16H49.86A6.27,6.27,0,0,1,46.62,150.21Zm6.45-8.5v-.25a3.21,3.21,0,0,0-3.21-3.2,3.19,3.19,0,0,0-3.2,3.2v.25Z"/><path class="cls-1" d="M60.87,150.92a.57.57,0,0,1-.17-.41v-2a.57.57,0,0,1,.17-.41.52.52,0,0,1,.4-.16h2.07v-9.35H61a.56.56,0,0,1-.41-.16.54.54,0,0,1-.16-.41v-1.93a.54.54,0,0,1,.16-.4.57.57,0,0,1,.41-.17h4.21a1.16,1.16,0,0,1,.83.34,1.13,1.13,0,0,1,.34.83v1l1.47-1.17a6.53,6.53,0,0,1,1.41-.91,3.58,3.58,0,0,1,1.41-.26h.84a.55.55,0,0,1,.41.17.54.54,0,0,1,.17.4V138a.53.53,0,0,1-.17.4.55.55,0,0,1-.41.17h-.7a2.85,2.85,0,0,0-1.22.24A9.45,9.45,0,0,0,68,139.89l-1.49,1.19v6.85h2.69a.54.54,0,0,1,.4.16.57.57,0,0,1,.17.41v2a.57.57,0,0,1-.17.41.54.54,0,0,1-.4.16H61.27A.52.52,0,0,1,60.87,150.92Z"/><path class="cls-2" d="M0,0V34.35A34.35,34.35,0,0,0,34.35,68.7h0A34.35,34.35,0,0,0,68.7,34.35V0H0"/><path class="cls-2" d="M97.84,0H68.7V34.35A34.34,34.34,0,0,1,48.92,65.46,34.36,34.36,0,0,0,97.84,34.35V0"/><path class="cls-1" d="M68.7,0H29.14V34.35A34.34,34.34,0,0,0,48.92,65.46,34.34,34.34,0,0,0,68.7,34.35V0"/></g></g></svg>