<svg xmlns="http://www.w3.org/2000/svg" viewBox="0 0 227.58 68.9"><defs><style>.cls-1{fill:#e54360;}</style></defs><g id="Livello_2" data-name="Livello 2"><g id="Livello_1-2" data-name="Livello 1"><path class="cls-1" d="M135.7,17a.82.82,0,0,1-.84-.57L130.11,2.12a.81.81,0,0,1-.06-.24.62.62,0,0,1,.19-.45.69.69,0,0,1,.49-.18h1.9a.89.89,0,0,1,.51.17.8.8,0,0,1,.31.43l3.37,11,3-11a.77.77,0,0,1,.32-.43.82.82,0,0,1,.5-.17h1.9a.84.84,0,0,1,.5.17.76.76,0,0,1,.31.43l3.26,11,3.13-11a.76.76,0,0,1,.31-.43.84.84,0,0,1,.5-.17h1.77a.69.69,0,0,1,.49.18.62.62,0,0,1,.19.45.81.81,0,0,1-.06.24l-4.48,14.29a.81.81,0,0,1-.31.44.9.9,0,0,1-.53.16l-2.15,0a1,1,0,0,1-.53-.15.73.73,0,0,1-.31-.42L141.57,6.12l-2.88,10.29a.81.81,0,0,1-.31.44.9.9,0,0,1-.53.16Z"/><path class="cls-1" d="M159.87,16a6.49,6.49,0,0,1-2.35-2.36,6.39,6.39,0,0,1-.87-3.26V7.39a6.39,6.39,0,0,1,.87-3.26,6.49,6.49,0,0,1,2.35-2.36,6.49,6.49,0,0,1,6.49,0,6.49,6.49,0,0,1,2.35,2.36,6.39,6.39,0,0,1,.87,3.26V9.21a1.1,1.1,0,0,1-.34.83,1.12,1.12,0,0,1-.83.34h-8.5v.14a3.19,3.19,0,0,0,3.2,3.2h4.32a.55.55,0,0,1,.41.17.52.52,0,0,1,.16.4v2a.56.56,0,0,1-.16.41.54.54,0,0,1-.41.16h-4.32a6.3,6.3,0,0,1-3.24-.87m6.45-8.5V7.2a3.21,3.21,0,1,0-6.41,0v.25Z"/><path class="cls-1" d="M183.56,15.88a4.28,4.28,0,0,1-1.43-3.35,4.09,4.09,0,0,1,1.3-3.11A6.68,6.68,0,0,1,187.1,7.8c.4,0,.78-.09,1.14-.16a22.58,22.58,0,0,0,2.31-.33,1.06,1.06,0,0,0,1-1.14,1.93,1.93,0,0,0-.83-1.62,3.95,3.95,0,0,0-5.29,1,.61.61,0,0,1-.51.35.57.57,0,0,1-.36-.11l-1.52-1a.52.52,0,0,1-.24-.46,1.08,1.08,0,0,1,.05-.25,5.57,5.57,0,0,1,2.34-2.32A7.33,7.33,0,0,1,188.7.9a7,7,0,0,1,3.15.68A5,5,0,0,1,194,3.51a5.47,5.47,0,0,1,.75,2.88v9.86a.57.57,0,0,1-.17.41.52.52,0,0,1-.4.16h-1.85a.59.59,0,0,1-.41-.15.54.54,0,0,1-.16-.42V15.19a5.94,5.94,0,0,1-4.45,2,5.3,5.3,0,0,1-3.71-1.29m6-2.16a4.44,4.44,0,0,0,1.53-1.42,3.33,3.33,0,0,0,.59-1.86V9.89l-2,.3c-1.1.13-1.82.23-2.15.3-1.48.27-2.22.92-2.22,1.93a1.61,1.61,0,0,0,.62,1.34,2.55,2.55,0,0,0,1.66.51,4,4,0,0,0,2-.55"/><path class="cls-1" d="M199.79,16.66a.56.56,0,0,1-.16-.41v-2a.56.56,0,0,1,.16-.41.54.54,0,0,1,.4-.16h2.07V4.32h-2.33a.54.54,0,0,1-.41-.16.55.55,0,0,1-.17-.41V1.82a.54.54,0,0,1,.17-.4.55.55,0,0,1,.41-.17h4.2a1.16,1.16,0,0,1,1.17,1.17v1l1.47-1.17a6.53,6.53,0,0,1,1.41-.91,3.58,3.58,0,0,1,1.41-.26h.85a.57.57,0,0,1,.41.17.56.56,0,0,1,.16.4v2.1a.56.56,0,0,1-.16.4.57.57,0,0,1-.41.17h-.71a2.85,2.85,0,0,0-1.22.24,9.45,9.45,0,0,0-1.58,1.09l-1.49,1.19v6.85h2.69a.52.52,0,0,1,.4.16.53.53,0,0,1,.17.41v2a.53.53,0,0,1-.17.41.52.52,0,0,1-.4.16h-7.94a.54.54,0,0,1-.4-.16"/><path class="cls-1" d="M217.87,16a6.49,6.49,0,0,1-2.35-2.36,6.39,6.39,0,0,1-.87-3.26V7.39a6.39,6.39,0,0,1,.87-3.26,6.49,6.49,0,0,1,2.35-2.36,6.49,6.49,0,0,1,6.49,0,6.49,6.49,0,0,1,2.35,2.36,6.39,6.39,0,0,1,.87,3.26V9.21a1.1,1.1,0,0,1-.34.83,1.12,1.12,0,0,1-.83.34h-8.5v.14a3.19,3.19,0,0,0,3.2,3.2h4.32a.57.57,0,0,1,.41.17.52.52,0,0,1,.16.4v2a.55.55,0,0,1-.57.57h-4.32a6.27,6.27,0,0,1-3.24-.87m6.45-8.5V7.2a3.21,3.21,0,1,0-6.41,0v.25Z"/><path class="cls-1" d="M133.29,47.59a.55.55,0,0,1-.17-.41v-12H131a.54.54,0,0,1-.41-.16.56.56,0,0,1-.16-.41v-1.9a.56.56,0,0,1,.16-.41.54.54,0,0,1,.41-.16h2.14v-.87a4.6,4.6,0,0,1,1.32-3.42,4.68,4.68,0,0,1,3.44-1.31h2.55a.57.57,0,0,1,.41.17.52.52,0,0,1,.16.4V29a.55.55,0,0,1-.57.57h-2.58a1.39,1.39,0,0,0-1.07.42,1.56,1.56,0,0,0-.4,1.13v1.06h10a1.35,1.35,0,0,1,1.36,1.36V44.66h2.2a.56.56,0,0,1,.41.16.6.6,0,0,1,.16.41v2a.58.58,0,0,1-.16.41.56.56,0,0,1-.41.16h-4.1a1.33,1.33,0,0,1-1-.39,1.3,1.3,0,0,1-.39-1V35.23h-8.1v12a.54.54,0,0,1-.16.41.56.56,0,0,1-.41.16h-2.12a.52.52,0,0,1-.4-.16m11.38-17.36a.54.54,0,0,1-.17-.4V26.7a.57.57,0,0,1,.17-.41.58.58,0,0,1,.41-.16h2.06a.6.6,0,0,1,.41.16.56.56,0,0,1,.16.41v3.13a.54.54,0,0,1-.16.4.57.57,0,0,1-.41.17h-2.06a.55.55,0,0,1-.41-.17"/><path class="cls-1" d="M159.79,47.58A4.61,4.61,0,0,1,158,46v1.16a.53.53,0,0,1-.16.41.57.57,0,0,1-.41.17H155.7a.55.55,0,0,1-.41-.17.53.53,0,0,1-.16-.41V27.52a.55.55,0,0,1,.57-.57h2.11a.54.54,0,0,1,.41.16.55.55,0,0,1,.17.41v6.06a4.49,4.49,0,0,1,1.64-1.3,4.81,4.81,0,0,1,2-.44,5.7,5.7,0,0,1,3,.85,6.39,6.39,0,0,1,2.2,2.3,6.21,6.21,0,0,1,.81,3.1v3.77a6.15,6.15,0,0,1-.82,3.1A6.44,6.44,0,0,1,165,47.25a5.67,5.67,0,0,1-3,.86,4.89,4.89,0,0,1-2.24-.53m4.1-3.53a3.11,3.11,0,0,0,.93-2.27V38.17a3.21,3.21,0,0,0-5.48-2.27,3,3,0,0,0-1,2.27v3.61a3.05,3.05,0,0,0,1,2.27,3.25,3.25,0,0,0,4.55,0"/><path class="cls-1" d="M176.22,46.89a6.44,6.44,0,0,1-2.35-2.37,6.34,6.34,0,0,1-.87-3.26V38.33a6.46,6.46,0,0,1,6.47-6.49,6.27,6.27,0,0,1,3.24.87,6.49,6.49,0,0,1,3.22,5.62v1.82a1.12,1.12,0,0,1-.34.83,1.14,1.14,0,0,1-.83.34h-8.5v.13a3.21,3.21,0,0,0,3.21,3.21h4.32a.54.54,0,0,1,.4.16.57.57,0,0,1,.17.41v2a.53.53,0,0,1-.17.41.54.54,0,0,1-.4.17h-4.32a6.31,6.31,0,0,1-3.25-.87m6.45-8.51v-.24a3.19,3.19,0,0,0-3.2-3.21,3.21,3.21,0,0,0-3.21,3.21v.24Z"/><path class="cls-1" d="M190.47,47.59a.53.53,0,0,1-.16-.41v-2a.54.54,0,0,1,.16-.41.55.55,0,0,1,.41-.17h2.06V35.26H190.6a.54.54,0,0,1-.4-.16.57.57,0,0,1-.17-.41V32.76a.57.57,0,0,1,.17-.41.54.54,0,0,1,.4-.16h4.22a1.09,1.09,0,0,1,.82.34,1.12,1.12,0,0,1,.34.83v1l1.47-1.17a6.16,6.16,0,0,1,1.41-.91,3.6,3.6,0,0,1,1.42-.26h.84a.52.52,0,0,1,.4.16.57.57,0,0,1,.17.41v2.09a.57.57,0,0,1-.17.41.52.52,0,0,1-.4.16h-.71a2.71,2.71,0,0,0-1.22.25,9.23,9.23,0,0,0-1.58,1.08l-1.49,1.2V44.6h2.69a.57.57,0,0,1,.41.17.58.58,0,0,1,.16.41v2a.56.56,0,0,1-.57.58h-7.93a.55.55,0,0,1-.41-.17"/><polygon class="cls-1" points="97.87 3.75 94.32 0.17 94.2 0.05 94.15 0 92.22 0 92.39 0.17 97.87 5.7 98.04 5.87 98.04 3.92 97.87 3.75"/><polygon class="cls-1" points="88.35 0.17 88.23 0.05 88.18 0 86.25 0 86.42 0.17 97.87 11.72 98.04 11.89 98.04 9.94 97.87 9.77 88.35 0.17"/><polygon class="cls-1" points="82.38 0.17 82.26 0.05 82.21 0 80.28 0 80.44 0.17 97.87 17.74 98.04 17.91 98.04 15.96 97.87 15.79 82.38 0.17"/><polygon class="cls-1" points="76.4 0.17 76.28 0.05 76.23 0 74.3 0 74.47 0.17 97.87 23.76 98.04 23.94 98.04 21.99 97.87 21.82 76.4 0.17"/><polygon class="cls-1" points="70.43 0.17 70.31 0.05 70.26 0 68.91 0 68.77 0 68.33 0 68.5 0.17 68.6 0.27 68.63 0.3 68.77 0.45 68.94 0.62 68.94 0.62 97.87 29.79 98.04 29.96 98.04 28.01 97.87 27.84 70.43 0.17"/><path class="cls-1" d="M68.77,4.52l-.17-.17-.7-.7.87-.88.17-.17V.65l-.17.18L66.94,2.67h0l-2-2,.46-.47L65.55,0H62.36l.17.17L63,.64l-2,2h0l-2-2,.46-.47L59.57,0H56.38l.17.17L57,.64l-2,2-2-2,.46-.47L53.6,0H50.41l.17.17L51,.64l-2,2-2-2,.46-.47L47.63,0H44.44l.17.17.46.47-2,2h0l-2-2,.46-.47L41.66,0H38.47l.17.17.46.47-2,2-2-2,.46-.47L35.68,0H32.49l.17.17.46.47-2,2L29.27.83,29.1.65v2l.17.17.86.88-.69.7-.17.17L.17,33.86.05,34,0,34v.43c0,.27,0,.54,0,.81l0,.66.17-.17L29.1,6.64h0l.17-.17.1-.11h0L31.1,4.62l2,2-2,2L29.27,6.85l-.17-.17V8.62l.17.17.86.88-.69.7-.17.17L.54,39.51l-.09.09-.06.06v.09c.07.42.15.83.23,1.24l.06.32.14-.15L29.1,12.66l.17-.17,1.83-1.85,2,2-2,2-1.83-1.85-.17-.17v2l.17.17.87.87-.7.71h0l-.17.18L1.64,44.42l-.14.14,0,.1c.1.33.22.66.33,1L2,46l.14-.14,27-27.2.17-.16,1.83-1.85h0l2,2-2,2-1.83-1.85-.17-.17v2l.17.17.86.88-.69.7-.17.17L3.3,48.78l0,0-.08.08.05.11c.16.33.31.66.48,1l.11.21.13-.13L29.1,24.71l.17-.17.1-.11h0l1.71-1.72,2,2-2,2h0l-1.83-1.84-.17-.17v1.94l.17.17.86.88-.69.7-.17.17L5.41,52.67l0,0-.1.1.15.24.5.76.12.17.12-.12L29.1,30.73l.17-.17,1.83-1.85h0l2,2-2,2-1.83-1.85-.17-.17v1.94l.17.18.86.87-.86.87-.16.17L7.91,56.17v0l-.11.11.1.11c.19.24.39.46.59.69l.21.24.12-.13L29.17,36.68l.16-.16.15-.15h0l1.61-1.62,2,2-2,2-1.73-1.74-.18-.19,0,.47c.05.56.11,1.11.18,1.64v.06l.2.21.52.53-.38.38,0,0L10.81,59.28h0l-.12.12.13.12c.25.24.5.48.76.7l.12.11.12-.13L29.92,42l.15-.15.07-.07.06-.07.9-.9,2,2-2,2-.32-.32-.29-.29.3.93L14.07,62h0l-.13.13.16.11c.28.21.57.41.86.61l.11.09.13-.14,16.1-16.23h0c.05.12.09.24.14.35l.1.26.34.34,1.25,1.28-.36.36-.12.12L17.69,64.38l-.13.13.2.11.95.51.11.05.14-.13L33.3,50.59l.12-.12.67-.68h0l2,2-1.3,1.31-.13.13-12.93,13-.14.14.24.1,1.06.4.1,0,.14-.13L35.59,54.3l0,0,.1-.1,1.36-1.38,2,2-1.73,1.74-.13.13-10.9,11-.06.07-.13.15.3.07c.39.1.77.19,1.16.27h.09l.15-.15L38.14,57.75h0l.13-.13,1.79-1.8h0l2,2-1.78,1.8-.13.13L31.4,68.62l-.16.16.36,0L33,68.9h.07l.16-.16,8-8,0,0,.08-.08.11-.12,1.61-1.62h0l2,2-1.46,1.47h0l-6.24,6.3-.2.19.47,0c.54-.05,1.1-.11,1.65-.19h.06l.21-.21,5.2-5.24.11-.12h0L46,61.84h0l2,2-.65.65h0l-.12.12-2.49,2.52-.29.29.67-.22c.77-.25,1.55-.54,2.29-.84l.34-.33.63-.63h0l.13-.13.12-.12h0l.34-.34.34.34.12.12.74.75.3.3.06,0c.75.31,1.52.59,2.29.84l.67.22-.29-.29-2.49-2.52-.12-.12h0L50,63.88l2-2L53.18,63h0l.11.12,5.2,5.24.17.17.05,0h0c.55.08,1.11.14,1.65.19l.46,0-.19-.19-6.24-6.3h0L53,60.86l2-2h0l1.61,1.62.11.12.07.07.06.06,8,8,.12.11,0,.05h.07c.46,0,.92-.05,1.37-.09l.37,0-.16-.16-8.77-8.84-.12-.13L56,57.85l2-2,1.79,1.8.13.13h0L70.19,68.13l.08.08.07.06h.08c.41-.08.8-.18,1.2-.27l.29-.07-.14-.15-11-11.06h0l-.13-.13L59,54.84l2-2h0l1.36,1.38.12.12L74.89,66.85l.06.06L75,67l.1,0,1.06-.4.24-.1-.13-.14L63.23,53.14,63.12,53l-1.19-1.19,2-2h0l.67.68.12.12L79.08,65.05l.13.13.12-.05,1-.51.2-.11-.13-.13L65.53,49.44l-.13-.14h0l-.12-.12-.35-.36,1.24-1.25.31-.31.14-.32.14-.35h0l16.1,16.23,0,0L83,63l.11-.09c.29-.2.58-.4.86-.61l.16-.11L84,62,67.25,45.15l.3-.93-.29.29-.32.32-2-2,2-2,.9.9.13.14L86.22,60.2l0,0,.11.11.12-.11c.26-.22.51-.46.76-.7l.13-.12-.13-.12-18.86-19-.08-.09-.07-.06-.32-.32.52-.53.21-.21V39c.07-.53.13-1.08.17-1.64l0-.47-.19.19-1.72,1.74-2-2,2-2,1.61,1.62.16.16L89.22,57.21h0l.12.13.21-.24c.2-.23.4-.45.59-.69l.1-.11-.12-.13L68.93,34.8l-.16-.17-.87-.87.87-.87.17-.18V30.77l-.17.17-1.83,1.85-2-2,2-2h0l1.83,1.85.17.17,22.91,23.1,0,0L92,54l.12-.17c.15-.22.3-.45.44-.68l.21-.32-.13-.13L68.77,28.61l-.17-.17-.7-.7.87-.88.17-.17V24.75l-.17.17-1.83,1.84h0l-2-2,2-2h0l1.83,1.85.17.17L94.1,50.08l.13.13.11-.21c.17-.32.33-.65.48-1l.05-.11-.13-.13-26-26.19-.17-.17-.7-.7.87-.88.17-.17v-2l-.17.17-1.83,1.85h0l-2-2,2-2h0l1.83,1.85.17.16L95.86,45.83l0,.05.14.14.12-.36c.12-.33.23-.66.34-1l0-.1-.14-.14L68.77,16.57l-.17-.18h0l-.7-.71.87-.87.17-.17v-2l-.17.17-1.83,1.85-2-2,2-2,1.83,1.85.17.17L97.13,41.08l.07.08.15.15.07-.32c.07-.41.15-.82.22-1.24v-.09l-.15-.15-28.73-29-.17-.17-.7-.7.87-.88.17-.17V6.68l-.17.17L66.94,8.69l-2-2,2-2h0l1.83,1.85.17.17h0l28.78,29,.11.11.17.17,0-.66c0-.27,0-.54,0-.81V34l-.17-.18ZM34.09,1.61h0l2,2-2,2-2-2,2-2Zm6,0h0l2,2-2,2h0l-2-2Zm6,0h0l2,2-2,2-2-2,2-2Zm6,0h0l2,2-2,2-2-2Zm6,0h0l2,2-2,2-2-2,2-2ZM49,62.9h0l-2-2,2-2,2,2Zm-6-58.28h0l2,2-2,2-2-2Zm6,0h0l2,2-2,2-2-2Zm6,0h0l2,2-2,2-2-2Zm6,0,2,2-2,2-2-2ZM49,56.88l-2-2,2-2,2,2Zm-9-49.25,2,2-2,2h0l-2-2Zm6,0,2,2-2,2-2-2Zm6,0,2,2-2,2-2-2Zm6,0,2,2-2,2-2-2Zm-14.93,3h0l2,2-2,2-2-2Zm11.94,0h0l2,2-2,2-2-2ZM49,50.86h0l-2-2,2-2,2,2ZM46,13.65h0l2,2-2,2-2-2Zm6,0h0l2,2-2,2-2-2ZM49,44.83l-2-2,2-2,2,2Zm0-28.16h0l2,2-2,2-2-2Zm0,22.14-2-2,2-2,2,2Zm2-14.08-2,2-2-2,2-2Zm-2,8.06-2-2,2-2,2,2ZM46,19.68h0l2,2-2,2h0l-2-2,2-2Zm0,6h0l2,2-2,2h0l-2-2Zm0,6,2,2-2,2h0l-2-2Zm6,4.08h0l-2-2,2-2,2,2Zm0-6h0l-2-2,2-2,2,2Zm0-6h0l-2-2,2-2,2,2Zm-9-1.06h0l2,2-2,2h0l-2-2Zm3,15.06h0l2,2-2,2h0l-2-2Zm6,4.07h0l-2-2,2-2h0l2,2Zm3-15.06h0l-2-2,2-2,2,2ZM43.05,16.67h0l2,2-2,2h0l-2-2Zm0,12h0l2,2-2,2h0l-2-2Zm0,6h0l2,2-2,2-2-2ZM55,38.81h0l-2-2,2-2,2,2Zm0-6h0l-2-2,2-2h0l2,2Zm0-12h0l-2-2,2-2,2,2ZM40.06,19.68h0l2,2-2,2-2-2,2-2Zm0,6h0l2,2-2,2h0l-2-2Zm0,12.05h0l2,2-2,2h0l-2-2,2-2Zm3,3h0l2,2-2,2h0l-2-2Zm3,3h0l2,2-2,2h0l-2-2Zm6,4.07h0l-2-2,2-2,2,2Zm3-3h0l-2-2,2-2,2,2Zm3-3h0l-2-2,2-2,2,2Zm0-12h0l-2-2,2-2h0l2,2Zm0-6h0l-2-2,2-2,2,2ZM51,12.68l-2,2-2-2,2-2Zm-11,1h0l2,2-2,2-2-2,2-2Zm0,18.07h0l2,2-2,2h0l-2-2,2-2ZM58,35.8h0l-2-2,2-2h0l2,2Zm0-18.07-2-2,2-2,2,2ZM46,49.79l2,2-2,2-2-2Zm6,4.08-2-2,2-2h0l2,2ZM37.07,10.64h0l2,2-2,2-2-2Zm0,6,2,2-2,2-2-2Zm0,6h0l2,2-2,2-2-2Zm0,6h0l2,2-2,2-2-2Zm0,6,2,2-2,2-2-2Zm0,6h0l2,2-2,2-2-2Zm3,3,2,2-2,2h0l-2-2Zm3,3h0l2,2-2,2h0l-2-2ZM55,50.86h0l-2-2,2-2,2,2Zm3-3h0l-2-2,2-2,2,2Zm3-3h0l-2-2,2-2h0l2,2-2,2Zm0-6h0l-2-2,2-2,2,2-2,2Zm0-6h0l-2-2,2-2h0l2,2-2,2Zm-2-8.06,2-2h0l2,2-2,2Zm2-4h0l-2-2,2-2,2,2-2,2Zm0-6h0l-2-2,2-2h0l2,2-2,2Zm-23.89-6-2-2,2-2,2,2Zm6,44.1,2,2-2,2h0l-2-2ZM55,56.88h0l-2-2,2-2,2,2-2,2ZM34.09,7.63h0l2,2-2,2-2-2Zm0,6h0l2,2-2,2-2-2Zm0,6h0l2,2-2,2-2-2Zm0,6h0l2,2-2,2-2-2Zm0,6h0l2,2-2,2-2-2Zm0,6h0l2,2-2,2-2-2Zm0,6h0l2,2-2,2-2-2Zm3,3,2,2-2,2-2-2Zm3,3h0l2,2-2,2h0l-2-2Zm6,6h0l2,2-2,2h0l-2-2Zm6,4.07h0l-2-2,2-2,2,2Zm6-6h0l-2-2,2-2h0l2,2Zm3-3-2-2,2-2,2,2Zm3-3h0l-2-2,2-2,2,2Zm0-6-2-2,2-2h0l2,2Zm0-6-2-2,2-2,2,2Zm0-6h0l-2-2,2-2,2,2Zm0-6h0l-2-2,2-2h0l2,2Zm0-6-2-2,2-2,2,2Zm0-6h0l-2-2,2-2h0l2,2Zm0-6-2-2,2-2h0l2,2Z"/><polygon class="cls-1" points="5.65 0.17 5.82 0 3.89 0 3.72 0.17 0.17 3.75 0 3.92 0 5.87 0.17 5.7 5.65 0.17"/><polygon class="cls-1" points="11.62 0.17 11.79 0 9.86 0 9.69 0.17 0.17 9.77 0.05 9.89 0 9.94 0 11.89 0.17 11.72 11.62 0.17"/><polygon class="cls-1" points="17.59 0.17 17.76 0 15.83 0 15.66 0.17 0.17 15.79 0.05 15.91 0 15.96 0 17.91 0.17 17.74 17.59 0.17"/><polygon class="cls-1" points="23.57 0.17 23.74 0 21.8 0 21.64 0.17 0.17 21.82 0.05 21.94 0 21.99 0 23.94 0.17 23.76 23.57 0.17"/><polygon class="cls-1" points="29.1 0.62 29.1 0.62 29.27 0.45 29.33 0.38 29.39 0.33 29.39 0.32 29.52 0.17 29.67 0 29.44 0 29.27 0 27.78 0 27.61 0.17 0.17 27.84 0.05 27.96 0 28.01 0 29.96 0.17 29.79 29.1 0.62"/></g></g></svg>